<svg width="32" height="32" viewBox="0 0 32 32" fill="none" xmlns="http://www.w3.org/2000/svg">
<g clip-path="url(#clip0_431_142)">
<path d="M18.5647 15.7328L14.9711 14.056C14.6575 13.9104 14.3999 14.0736 14.3999 14.4208V17.5792C14.3999 17.9264 14.6575 18.0896 14.9711 17.944L18.5631 16.2672C18.8783 16.12 18.8783 15.88 18.5647 15.7328ZM15.9999 0.640015C7.51669 0.640015 0.639893 7.51682 0.639893 16C0.639893 24.4832 7.51669 31.36 15.9999 31.36C24.4831 31.36 31.3599 24.4832 31.3599 16C31.3599 7.51682 24.4831 0.640015 15.9999 0.640015ZM15.9999 22.24C8.13749 22.24 7.99989 21.5312 7.99989 16C7.99989 10.4688 8.13749 9.76001 15.9999 9.76001C23.8623 9.76001 23.9999 10.4688 23.9999 16C23.9999 21.5312 23.8623 22.24 15.9999 22.24Z" fill="#F3F3F0"/>
</g>
<defs>
<clipPath id="clip0_431_142">
<rect width="32" height="32" fill="white"/>
</clipPath>
</defs>
</svg>
