<svg width="32" height="32" viewBox="0 0 32 32" fill="none" xmlns="http://www.w3.org/2000/svg">
<g clip-path="url(#clip0_431_140)">
<path d="M15.9999 0.640015C7.51669 0.640015 0.639893 7.51682 0.639893 16C0.639893 24.4832 7.51669 31.36 15.9999 31.36C24.4831 31.36 31.3599 24.4832 31.3599 16C31.3599 7.51682 24.4831 0.640015 15.9999 0.640015ZM21.9071 17.9696C21.9071 17.9696 23.2655 19.3104 23.5999 19.9328C23.6095 19.9456 23.6143 19.9584 23.6175 19.9648C23.7535 20.1936 23.7855 20.3712 23.7183 20.504C23.6063 20.7248 23.2223 20.8336 23.0911 20.8432H20.6911C20.5247 20.8432 20.1759 20.8 19.7535 20.5088C19.4287 20.2816 19.1087 19.9088 18.7967 19.5456C18.3311 19.0048 17.9279 18.5376 17.5215 18.5376C17.4699 18.5375 17.4186 18.5456 17.3695 18.5616C17.0623 18.6608 16.6687 19.0992 16.6687 20.2672C16.6687 20.632 16.3807 20.8416 16.1775 20.8416H15.0783C14.7039 20.8416 12.7535 20.7104 11.0255 18.888C8.91029 16.656 7.00629 12.1792 6.99029 12.1376C6.87029 11.848 7.11829 11.6928 7.38869 11.6928H9.81269C10.1359 11.6928 10.2415 11.8896 10.3151 12.064C10.4015 12.2672 10.7183 13.0752 11.2383 13.984C12.0815 15.4656 12.5983 16.0672 13.0127 16.0672C13.0904 16.0663 13.1667 16.0465 13.2351 16.0096C13.7759 15.7088 13.6751 13.7808 13.6511 13.3808C13.6511 13.3056 13.6495 12.5184 13.3727 12.1408C13.1743 11.8672 12.8367 11.7632 12.6319 11.7248C12.7148 11.6104 12.824 11.5177 12.9503 11.4544C13.3215 11.2688 13.9903 11.2416 14.6543 11.2416H15.0239C15.7439 11.2512 15.9295 11.2976 16.1903 11.3632C16.7183 11.4896 16.7295 11.8304 16.6831 12.9968C16.6687 13.328 16.6543 13.7024 16.6543 14.144C16.6543 14.24 16.6495 14.3424 16.6495 14.4512C16.6335 15.0448 16.6143 15.7184 17.0335 15.9952C17.0882 16.0295 17.1514 16.0478 17.2159 16.048C17.3615 16.048 17.7999 16.048 18.9871 14.0112C19.3532 13.3556 19.6714 12.6744 19.9391 11.9728C19.9631 11.9312 20.0335 11.8032 20.1167 11.7536C20.1781 11.7223 20.2462 11.7064 20.3151 11.7072H23.1647C23.4751 11.7072 23.6879 11.7536 23.7279 11.8736C23.7983 12.064 23.7151 12.6448 22.4143 14.4064L21.8335 15.1728C20.6543 16.7184 20.6543 16.7968 21.9071 17.9696Z" fill="#F3F3F0"/>
</g>
<defs>
<clipPath id="clip0_431_140">
<rect width="32" height="32" fill="white"/>
</clipPath>
</defs>
</svg>
