<svg width="32" height="32" viewBox="0 0 32 32" fill="none" xmlns="http://www.w3.org/2000/svg">
<path d="M3.27779 3.36749C1.08385 5.53599 0.695913 7.98562 1.20104 10.7323C1.59416 12.8699 2.58098 15.1577 3.75679 17.4677C4.86541 15.7731 6.3266 13.9162 8.04904 12.5604C6.75529 11.4877 5.65773 10.3172 4.8386 9.03249C3.75798 7.33749 3.1821 5.43187 3.27779 3.36749ZM28.7227 3.36749C28.8183 5.43187 28.2425 7.33749 27.1618 9.03249C26.3427 10.3172 25.2452 11.4877 23.9514 12.5604C25.6738 13.9162 27.135 15.7731 28.2437 17.4677C29.4195 15.1577 30.4063 12.8699 30.7994 10.7323C31.3045 7.98562 30.9166 5.53599 28.7227 3.36756V3.36749ZM16.0002 11.1875C15.4564 11.1875 14.9339 11.3598 14.5627 11.6447V13.0435C14.9815 12.878 15.4712 12.7925 16.0002 12.7925C16.5293 12.7925 17.019 12.878 17.4377 13.0434V11.6447C17.0665 11.3598 16.5441 11.1875 16.0002 11.1875ZM13.4377 13.0658C11.5324 13.7894 9.68504 15.2321 8.17735 16.9911C6.1701 19.3329 4.79923 22.2188 4.59285 24.4375H13.4377V13.0658ZM18.5627 13.0658V24.4375H27.4076C27.2013 22.2188 25.8303 19.3329 23.8231 16.9911C22.3154 15.2321 20.468 13.7894 18.5627 13.0658ZM8.96885 13.2839C7.15029 14.6699 5.51954 16.7972 4.3606 18.6281C4.55562 18.9949 4.75243 19.3608 4.95104 19.7257C5.58616 18.5241 6.39404 17.3428 7.3231 16.2589C8.07204 15.3852 8.90366 14.5736 9.79541 13.8742C9.51608 13.6829 9.2405 13.4861 8.96885 13.2839ZM23.0316 13.2839C22.7599 13.4861 22.4844 13.6829 22.205 13.8742C23.0968 14.5736 23.9284 15.3852 24.6774 16.2589C25.6064 17.3428 26.4142 18.5241 27.0494 19.7257C27.2481 19.3601 27.4456 18.9941 27.6399 18.6281C26.4809 16.7972 24.8502 14.6699 23.0316 13.2839ZM16.0002 13.9175C15.524 13.9175 15.0972 14.0212 14.8376 14.151C14.6337 14.2529 14.5812 14.3368 14.5677 14.355C14.5812 14.3731 14.6337 14.457 14.8376 14.5589C15.0972 14.6887 15.5239 14.7925 16.0002 14.7925C16.4765 14.7925 16.9033 14.6887 17.1628 14.5589C17.3667 14.4571 17.4193 14.3732 17.4327 14.355C17.4193 14.3368 17.3667 14.2529 17.1628 14.151C16.9033 14.0212 16.4765 13.9175 16.0002 13.9175ZM17.4327 14.355C17.4364 14.36 17.4377 14.3609 17.4377 14.355C17.4377 14.349 17.4364 14.35 17.4327 14.355ZM14.5677 14.355C14.564 14.35 14.5627 14.349 14.5627 14.355C14.5627 14.3609 14.564 14.36 14.5677 14.355ZM14.5627 15.6665V18.6885C14.9815 18.523 15.4712 18.4375 16.0002 18.4375C16.5293 18.4375 17.019 18.523 17.4377 18.6885V15.6665C17.019 15.832 16.5293 15.9175 16.0002 15.9175C15.4712 15.9175 14.9815 15.832 14.5627 15.6665ZM16.0002 19.5625C15.524 19.5625 15.0972 19.6662 14.8376 19.796C14.6337 19.898 14.5812 19.9818 14.5677 20C14.5812 20.0182 14.6337 20.102 14.8376 20.204C15.0972 20.3337 15.524 20.4375 16.0002 20.4375C16.4765 20.4375 16.9033 20.3337 17.1628 20.204C17.3667 20.102 17.4193 20.0182 17.4327 20C17.4193 19.9818 17.3667 19.898 17.1628 19.796C16.9033 19.6662 16.4765 19.5625 16.0002 19.5625ZM17.4327 20C17.4364 20.005 17.4377 20.006 17.4377 20C17.4377 19.994 17.4364 19.995 17.4327 20ZM14.5677 20C14.564 19.995 14.5627 19.994 14.5627 20C14.5627 20.006 14.564 20.005 14.5677 20ZM14.5627 21.3115V24.1784C14.9815 24.0128 15.4712 23.9274 16.0002 23.9274C16.5293 23.9274 17.019 24.0128 17.4377 24.1784V21.3115C17.019 21.477 16.5293 21.5625 16.0002 21.5625C15.4712 21.5625 14.9815 21.477 14.5627 21.3115ZM16.0002 25.0524C15.524 25.0524 15.0972 25.1561 14.8376 25.2859C14.6337 25.3878 14.5812 25.4717 14.5677 25.4899C14.5812 25.508 14.6337 25.5919 14.8376 25.6939C15.0972 25.8236 15.5239 25.9274 16.0002 25.9274C16.4765 25.9274 16.9033 25.8236 17.1628 25.6939C17.3667 25.5919 17.4193 25.5081 17.4327 25.4899C17.4193 25.4717 17.3667 25.3878 17.1628 25.2859C16.9033 25.1561 16.4765 25.0524 16.0002 25.0524ZM17.4327 25.4899C17.4364 25.4949 17.4377 25.4958 17.4377 25.4899C17.4377 25.4839 17.4364 25.4849 17.4327 25.4899ZM14.5677 25.4899C14.564 25.4849 14.5627 25.4839 14.5627 25.4899C14.5627 25.4958 14.564 25.4949 14.5677 25.4899ZM4.56273 25.5625V27.4375H5.71616C5.54241 27.1611 5.43773 26.8425 5.43773 26.5C5.43773 26.1575 5.54248 25.8389 5.71616 25.5625H4.56273ZM8.00023 25.5625C7.56191 25.5625 7.1756 25.7002 6.92354 25.8893C6.67148 26.0783 6.56273 26.2884 6.56273 26.5C6.56273 26.7116 6.67148 26.9217 6.92354 27.1107C7.1756 27.2997 7.56191 27.4375 8.00023 27.4375C8.43854 27.4375 8.82485 27.2997 9.07691 27.1107C9.32898 26.9217 9.43773 26.7116 9.43773 26.5C9.43773 26.2884 9.32898 26.0783 9.07691 25.8893C8.82485 25.7002 8.43854 25.5625 8.00023 25.5625ZM10.2843 25.5625C10.458 25.8389 10.5627 26.1575 10.5627 26.5C10.5627 26.8425 10.458 27.1611 10.2843 27.4375H13.4377V25.5625H10.2843ZM18.5627 25.5625V27.4375H21.7162C21.5424 27.1611 21.4377 26.8425 21.4377 26.5C21.4377 26.1575 21.5425 25.8389 21.7162 25.5625H18.5627ZM24.0002 25.5625C23.5619 25.5625 23.1756 25.7002 22.9235 25.8893C22.6715 26.0783 22.5627 26.2884 22.5627 26.5C22.5627 26.7116 22.6715 26.9217 22.9235 27.1107C23.1756 27.2997 23.5619 27.4375 24.0002 27.4375C24.4385 27.4375 24.8249 27.2997 25.0769 27.1107C25.329 26.9217 25.4377 26.7116 25.4377 26.5C25.4377 26.2884 25.329 26.0783 25.0769 25.8893C24.8249 25.7002 24.4385 25.5625 24.0002 25.5625ZM26.2843 25.5625C26.458 25.8389 26.5627 26.1575 26.5627 26.5C26.5627 26.8425 26.458 27.1611 26.2843 27.4375H27.4377V25.5625H26.2843ZM14.5627 26.8014V27.8297L16.0002 29.9859L17.4377 27.8297V26.8014C17.019 26.9669 16.5293 27.0524 16.0002 27.0524C15.4712 27.0524 14.9815 26.9669 14.5627 26.8014Z" fill="black"/>
</svg>
