<svg width="29" height="28" viewBox="0 0 29 28" fill="none" xmlns="http://www.w3.org/2000/svg">
<path d="M17.9999 14L6.66656 25.3333C5.55989 26.44 3.77323 26.44 2.66656 25.3333C2.40371 25.0708 2.19518 24.759 2.05291 24.4159C1.91063 24.0727 1.8374 23.7048 1.8374 23.3333C1.8374 22.9618 1.91063 22.594 2.05291 22.2508C2.19518 21.9076 2.40371 21.5959 2.66656 21.3333L13.9999 10M21.5199 18L27.3332 12.1867" stroke="black" stroke-width="2" stroke-linecap="round" stroke-linejoin="round"/>
<path d="M25.88 13.6L24.2133 11.9333C23.4133 11.1333 22.9733 10.0667 22.9733 8.93332V7.78666L19.3467 4.13332C18.6582 3.44081 17.8397 2.89114 16.9382 2.51588C16.0366 2.14063 15.0698 1.94718 14.0933 1.94666H10L11.2267 3.03999C12.0979 3.81251 12.7956 4.76092 13.2736 5.82271C13.7517 6.8845 13.9992 8.03555 14 9.19999V11.28L16.6667 13.9467H19.96L22.9733 16.4933" stroke="black" stroke-width="2" stroke-linecap="round" stroke-linejoin="round"/>
</svg>
