<svg width="32" height="32" viewBox="0 0 32 32" fill="none" xmlns="http://www.w3.org/2000/svg">
<path d="M16.0001 2.66663C8.64008 2.66663 2.66675 8.63996 2.66675 16C2.66675 23.36 8.64008 29.3333 16.0001 29.3333C23.3601 29.3333 29.3334 23.36 29.3334 16C29.3334 8.63996 23.3601 2.66663 16.0001 2.66663ZM22.1867 11.7333C21.9867 13.84 21.1201 18.96 20.6801 21.32C20.4934 22.32 20.1201 22.6533 19.7734 22.6933C19.0001 22.76 18.4134 22.1866 17.6667 21.6933C16.4934 20.92 15.8267 20.44 14.6934 19.6933C13.3734 18.8266 14.2267 18.3466 14.9867 17.5733C15.1867 17.3733 18.6001 14.2666 18.6667 13.9866C18.676 13.9442 18.6748 13.9002 18.6632 13.8584C18.6515 13.8165 18.6299 13.7782 18.6001 13.7466C18.5201 13.68 18.4134 13.7066 18.3201 13.72C18.2001 13.7466 16.3334 14.9866 12.6934 17.44C12.1601 17.8 11.6801 17.9866 11.2534 17.9733C10.7734 17.96 9.86675 17.7066 9.18675 17.48C8.34675 17.2133 7.69341 17.0666 7.74675 16.6C7.77341 16.36 8.10675 16.12 8.73341 15.8666C12.6267 14.1733 15.2134 13.0533 16.5067 12.52C20.2134 10.9733 20.9734 10.7066 21.4801 10.7066C21.5867 10.7066 21.8401 10.7333 22.0001 10.8666C22.1334 10.9733 22.1734 11.12 22.1867 11.2266C22.1734 11.3066 22.2001 11.5466 22.1867 11.7333Z" fill="#F3F3F0"/>
</svg>
