<svg width="32" height="32" viewBox="0 0 32 32" fill="none" xmlns="http://www.w3.org/2000/svg">
<g clip-path="url(#clip0_166_929)">
<path d="M25.8 13.3866C25.3521 11.1169 24.1301 9.07312 22.3428 7.60431C20.5554 6.13549 18.3135 5.33279 16 5.33331C12.1467 5.33331 8.8 7.51998 7.13333 10.72C5.17365 10.9318 3.36134 11.8603 2.04465 13.3271C0.727961 14.7939 -0.000228936 16.6955 5.39903e-08 18.6666C5.39903e-08 23.08 3.58667 26.6666 8 26.6666H25.3333C29.0133 26.6666 32 23.68 32 20C32 16.48 29.2667 13.6266 25.8 13.3866ZM25.3333 24H8C5.05333 24 2.66667 21.6133 2.66667 18.6666C2.66667 15.72 5.05333 13.3333 8 13.3333H8.94667C9.82667 10.2533 12.64 7.99998 16 7.99998C20.0533 7.99998 23.3333 11.28 23.3333 15.3333V16H25.3333C27.5467 16 29.3333 17.7866 29.3333 20C29.3333 22.2133 27.5467 24 25.3333 24Z" fill="black"/>
</g>
<defs>
<clipPath id="clip0_166_929">
<rect width="32" height="32" fill="white"/>
</clipPath>
</defs>
</svg>
