<svg width="16" height="16" viewBox="0 0 16 16" fill="none" xmlns="http://www.w3.org/2000/svg">
<path d="M5.91655 1.93332L11.5332 7.53332C11.5999 7.59998 11.647 7.67221 11.6746 7.74998C11.7026 7.82776 11.7166 7.91109 11.7166 7.99998C11.7166 8.08887 11.7026 8.17221 11.6746 8.24998C11.647 8.32776 11.5999 8.39998 11.5332 8.46665L5.91655 14.0833C5.761 14.2389 5.56655 14.3166 5.33322 14.3166C5.09989 14.3166 4.89989 14.2333 4.73322 14.0666C4.56655 13.9 4.48322 13.7055 4.48322 13.4833C4.48322 13.2611 4.56655 13.0666 4.73322 12.9L9.63322 7.99998L4.73322 3.09998C4.57766 2.94443 4.49989 2.75287 4.49989 2.52532C4.49989 2.29732 4.58322 2.09998 4.74989 1.93332C4.91655 1.76665 5.111 1.68332 5.33322 1.68332C5.55544 1.68332 5.74989 1.76665 5.91655 1.93332Z" fill="white"/>
</svg>
