<svg width="32" height="32" viewBox="0 0 32 32" fill="none" xmlns="http://www.w3.org/2000/svg">
<path d="M5.33317 5.33334H26.6665C27.3737 5.33334 28.052 5.61429 28.5521 6.11439C29.0522 6.61449 29.3332 7.29277 29.3332 8.00001V24C29.3332 24.7073 29.0522 25.3855 28.5521 25.8856C28.052 26.3857 27.3737 26.6667 26.6665 26.6667H5.33317C4.62593 26.6667 3.94765 26.3857 3.44755 25.8856C2.94746 25.3855 2.6665 24.7073 2.6665 24V8.00001C2.6665 7.29277 2.94746 6.61449 3.44755 6.11439C3.94765 5.61429 4.62593 5.33334 5.33317 5.33334ZM5.33317 8.00001V24H14.6665V8.00001H5.33317ZM26.6665 24V8.00001H25.0132C25.3332 8.72001 25.2665 9.42668 25.2665 9.50668C25.1732 10.4 24.5465 11.3333 24.3198 11.6667L21.2132 15.0667L25.6398 15.04L25.6532 16.6667L18.7198 16.6267L18.6665 15.2933C18.6665 15.2933 22.7332 10.9867 22.9332 10.6C23.1198 10.2267 23.8798 8.00001 21.9998 8.00001C20.3598 8.06668 20.5465 9.73334 20.5465 9.73334L18.4932 9.74668C18.4932 9.74668 18.5065 8.86668 18.9998 8.00001H17.3332V24H20.7732L20.7598 22.8533L22.0532 22.84C22.0532 22.84 23.2665 22.6267 23.2798 21.44C23.3332 20.1067 22.1998 20.1067 21.9998 20.1067C21.8265 20.1067 20.5732 20.1733 20.5732 21.2667H18.5465C18.5465 21.2667 18.5998 18.52 21.9998 18.52C25.4665 18.52 25.2798 21.2133 25.2798 21.2133C25.2798 21.2133 25.3332 22.88 23.7998 23.5067L24.4932 24H26.6665ZM11.8932 21.3333H9.89317V13.6L7.49317 14.3467V12.7067L11.6798 11.2133H11.8932V21.3333Z" fill="black"/>
</svg>
