<svg width="32" height="32" viewBox="0 0 32 32" fill="none" xmlns="http://www.w3.org/2000/svg">
<path d="M24.8125 7.0125C23.3 4.425 21.2375 3 19 3H13C10.7625 3 8.7 4.425 7.1875 7.0125C5.675 9.6 5 12.625 5 16C5 19.375 5.775 22.575 7.1875 24.9875C8.6 27.4 10.7625 29 13 29H19C21.2375 29 23.3 27.575 24.8125 24.9875C26.325 22.4 27 19.375 27 16C27 12.625 26.225 9.425 24.8125 7.0125ZM24.975 15H20.975C20.875 12.85 20.4625 10.7875 19.7625 9H23.5875C24.35 10.675 24.8625 12.75 24.975 15ZM22.4 7H18.8125C18.3892 6.27909 17.8861 5.60819 17.3125 5H19C20.25 5 21.425 5.75 22.4 7ZM7 16C7 10.0375 9.75 5 13 5C16.25 5 19 10.0375 19 16C19 21.9625 16.25 27 13 27C9.75 27 7 21.9625 7 16ZM19 27H17.3125C17.8861 26.3918 18.3892 25.7209 18.8125 25H22.4C21.425 26.25 20.25 27 19 27ZM23.5875 23H19.7625C20.4625 21.2125 20.875 19.15 20.975 17H24.975C24.8625 19.25 24.35 21.325 23.5875 23Z" fill="black"/>
</svg>
