<svg width="32" height="32" viewBox="0 0 32 32" fill="none" xmlns="http://www.w3.org/2000/svg">
<path d="M27 12C27.0017 10.1461 26.5349 8.32182 25.6428 6.69665C24.7507 5.07149 23.4624 3.69815 21.8974 2.70422C20.3325 1.71028 18.5417 1.12801 16.6915 1.01147C14.8412 0.894937 12.9915 1.24793 11.3142 2.03765C9.63695 2.82738 8.18646 4.02821 7.09753 5.52861C6.00859 7.02901 5.31653 8.78029 5.08565 10.6198C4.85476 12.4592 5.09253 14.3272 5.77687 16.0502C6.46121 17.7732 7.56992 19.2952 9 20.475V30C8.99898 30.1706 9.0422 30.3386 9.12545 30.4876C9.2087 30.6366 9.32913 30.7614 9.475 30.85C9.6197 30.941 9.78529 30.9933 9.95598 31.0021C10.1267 31.0108 10.2968 30.9757 10.45 30.9L16 28.1125L21.55 30.9C21.6919 30.9627 21.8449 30.9967 22 31C22.2652 31 22.5196 30.8946 22.7071 30.7071C22.8946 30.5196 23 30.2652 23 30V20.475C24.251 19.4452 25.2585 18.1512 25.9501 16.6859C26.6417 15.2206 27.0002 13.6203 27 12ZM7 12C7 10.22 7.52784 8.47991 8.51677 6.99986C9.5057 5.51982 10.9113 4.36627 12.5558 3.68508C14.2004 3.00389 16.01 2.82566 17.7558 3.17293C19.5016 3.5202 21.1053 4.37736 22.364 5.63603C23.6226 6.89471 24.4798 8.49835 24.8271 10.2442C25.1743 11.99 24.9961 13.7996 24.3149 15.4441C23.6337 17.0887 22.4802 18.4943 21.0001 19.4832C19.5201 20.4722 17.78 21 16 21C13.6141 20.9967 11.3268 20.0474 9.63969 18.3603C7.95258 16.6732 7.00331 14.3859 7 12ZM21 28.3875L16.45 26.1C16.3096 26.0324 16.1558 25.9973 16 25.9973C15.8442 25.9973 15.6904 26.0324 15.55 26.1L11 28.3875V21.8C12.5486 22.5891 14.2619 23.0005 16 23.0005C17.738 23.0005 19.4514 22.5891 21 21.8V28.3875ZM16 19C17.3845 19 18.7378 18.5895 19.889 17.8203C21.0401 17.0511 21.9373 15.9579 22.4672 14.6788C22.997 13.3997 23.1356 11.9922 22.8655 10.6344C22.5954 9.2765 21.9287 8.02922 20.9497 7.05025C19.9708 6.07128 18.7235 5.4046 17.3656 5.1345C16.0078 4.8644 14.6003 5.00303 13.3212 5.53284C12.0421 6.06265 10.9489 6.95986 10.1797 8.111C9.41054 9.26215 9 10.6155 9 12C9 13.8565 9.7375 15.637 11.0503 16.9497C12.363 18.2625 14.1435 19 16 19ZM16 7C16.9889 7 17.9556 7.29324 18.7779 7.84265C19.6001 8.39206 20.241 9.17295 20.6194 10.0866C20.9978 11.0002 21.0969 12.0055 20.9039 12.9754C20.711 13.9454 20.2348 14.8363 19.5355 15.5355C18.8363 16.2348 17.9454 16.711 16.9755 16.9039C16.0055 17.0968 15.0002 16.9978 14.0866 16.6194C13.173 16.241 12.3921 15.6001 11.8427 14.7778C11.2932 13.9556 11 12.9889 11 12C11.0033 10.6749 11.5311 9.40508 12.4681 8.46811C13.4051 7.53114 14.6749 7.0033 16 7Z" fill="black"/>
</svg>
