<svg width="115" height="48" viewBox="0 0 115 48" fill="none" xmlns="http://www.w3.org/2000/svg">
<path d="M13.6441 13.432V46.8611H0V1.13887H17.5088C22.8409 1.13887 26.9745 2.45639 29.9094 5.09142C33.1804 8.03908 34.8159 11.7795 34.8159 16.3126C34.8159 20.9351 32.7883 24.8318 28.7332 28.0028L36.597 46.8611H22.2808L15.6604 32.1228V20.3657H16.7358C19.6035 20.3657 21.0374 19.1375 21.0374 16.6811C21.0374 14.515 19.3795 13.432 16.0637 13.432H13.6441Z" fill="#C52D36"/>
<path d="M62.7425 0.937892V13.9679C61.7568 13.6329 60.995 13.4655 60.4573 13.4655C59.4268 13.4655 58.5418 13.8451 57.8025 14.6043C57.0631 15.3636 56.6935 16.2791 56.6935 17.351C56.6935 18.2666 57.0967 19.4278 57.9033 20.8346L58.9451 22.6434C60.827 25.9037 61.768 29.0523 61.768 32.0893C61.768 36.5331 60.1773 40.2959 56.9959 43.3775C53.8369 46.4592 49.9722 48 45.4018 48C43.2062 48 41.033 47.4976 38.8822 46.4927V33.2617C40.1817 34.0879 41.3355 34.501 42.3437 34.501C43.5311 34.501 44.5169 34.1661 45.301 33.4962C46.1075 32.8039 46.5108 31.9442 46.5108 30.917C46.5108 30.247 45.8723 28.7844 44.5953 26.529C42.5565 22.956 41.5371 19.3831 41.5371 15.8102C41.5371 11.5003 43.0718 7.79344 46.1411 4.68946C49.2329 1.56315 52.9184 0 57.1975 0C59.0795 0 60.9278 0.312631 62.7425 0.937892Z" fill="#C52D36"/>
<path d="M100.717 24.5192L115 24.8876C114.059 32.2568 111.494 37.9511 107.304 41.9707C103.137 45.9902 97.6929 48 90.9717 48C84.1384 48 78.4142 45.7223 73.799 41.1668C69.2061 36.589 66.9097 30.917 66.9097 24.1507C66.9097 17.3398 69.2509 11.612 73.9334 6.9672C78.6382 2.3224 84.4297 0 91.3077 0C98.0737 0 103.72 2.27774 108.245 6.83322C111.382 9.98186 113.6 14.3699 114.899 19.9972L100.281 20.9686C98.645 15.9665 95.5421 13.4655 90.9717 13.4655C88.0591 13.4655 85.6507 14.4703 83.7463 16.4801C81.8644 18.4899 80.9234 21.0468 80.9234 24.1507C80.9234 27.1431 81.8532 29.6218 83.7127 31.5869C85.5723 33.5297 87.9247 34.501 90.77 34.501C93.6601 34.501 95.9566 33.6413 97.6593 31.9218C99.3844 30.2024 100.404 27.7348 100.717 24.5192Z" fill="#C52D36"/>
</svg>
