<svg width="32" height="32" viewBox="0 0 32 32" fill="none" xmlns="http://www.w3.org/2000/svg">
<path d="M4.17333 1.78395C2.77333 2.61328 0.0266667 5.77061 0 6.59995V7.97328C0 9.71061 1.62667 11.2399 3.1 11.2399C4.87333 11.2399 6.348 9.77061 6.348 8.02661C6.348 9.77061 7.77467 11.2399 9.548 11.2399C11.3187 11.2399 12.6973 9.77061 12.6973 8.02661C12.6973 9.77061 14.2133 11.2399 15.9853 11.2399H16.0173C17.7907 11.2399 19.3053 9.77061 19.3053 8.02661C19.3053 9.77061 20.684 11.2399 22.456 11.2399C24.2293 11.2399 25.656 9.77061 25.656 8.02661C25.656 9.77061 27.1307 11.2399 28.9027 11.2399C30.3733 11.2399 32 9.70928 32 7.97328V6.59995C31.9733 5.77328 29.224 2.61328 27.8267 1.78395C23.4893 1.63195 20.4827 1.60528 16 1.60661C11.5173 1.60661 5.40667 1.67728 4.17333 1.78395ZM12.6747 10.4199C12.5051 10.7153 12.2951 10.9854 12.0507 11.2226C11.384 11.8759 10.464 12.2826 9.45467 12.2826C8.4827 12.283 7.54928 11.9025 6.85467 11.2226C6.62022 10.9899 6.42 10.725 6.26 10.4359C6.08169 10.7271 5.86358 10.9918 5.612 11.2226C4.91723 11.9023 3.98391 12.2828 3.012 12.2826C2.89167 12.2789 2.77276 12.2555 2.66 12.2133C2.53735 13.5212 2.46263 14.8332 2.436 16.1466V16.1533L2.428 17.7093C2.45467 20.8213 2.12133 27.7946 3.80133 29.5093C6.404 30.1146 11.1947 30.3919 16.0013 30.3933C20.808 30.3933 25.5987 30.1133 28.2013 29.5079C29.8813 27.7959 29.548 20.8226 29.5747 17.7106L29.5667 16.1546V16.1493C29.5408 14.8358 29.4661 13.5238 29.3427 12.2159C29.2302 12.2574 29.1118 12.2808 28.992 12.2853C28.0201 12.2854 27.0868 11.9049 26.392 11.2253C26.1397 10.9952 25.9215 10.7303 25.744 10.4386C25.5747 10.7319 25.3907 10.9879 25.148 11.2253C24.4532 11.9047 23.5198 12.2847 22.548 12.2839C21.5347 12.2839 20.62 11.8799 19.9507 11.2266C19.7063 10.9895 19.4962 10.7193 19.3267 10.4239C19.1592 10.7189 18.9514 10.989 18.7093 11.2266C18.0144 11.9059 17.0811 12.2859 16.1093 12.2853H15.896C14.9244 12.2863 13.9911 11.9067 13.296 11.2279C13.0535 10.9905 12.8452 10.7203 12.6773 10.4253L12.6747 10.4199ZM10.0027 13.8733V13.8759C11.0627 13.8786 12.0027 13.8759 13.1667 15.1466C14.108 15.0495 15.0537 15.0019 16 15.0039C16.96 15.0039 17.9173 15.0506 18.8333 15.1466C19.9973 13.8759 20.9373 13.8799 21.996 13.8759C22.4973 13.8759 24.4973 13.8759 25.8893 17.7879L27.3867 23.1586C28.496 27.1519 27.032 27.2493 25.2053 27.2519C22.4987 27.1519 20.9973 25.1853 20.9973 23.2186C19.4987 23.4639 17.7493 23.5866 16 23.5879C14.2507 23.5879 12.5013 23.4639 11.0027 23.2186C11.0027 25.1853 9.50267 27.1519 6.79467 27.2533C4.968 27.2479 3.504 27.1506 4.61333 23.1573L6.10933 17.7879C7.50267 13.8759 9.50267 13.8759 10.0027 13.8759V13.8733ZM16 16.9519C15.9973 16.9546 13.1467 19.5706 12.636 20.5013L14.5027 20.4266V22.0533C14.5027 22.1279 15.2493 22.0973 16 22.0626C16.7493 22.0973 17.4987 22.1293 17.4987 22.0519V20.4253L19.3653 20.4986C18.8507 19.5693 16 16.9506 16 16.9506V16.9519Z" fill="#F3F3F0"/>
</svg>
